<svg version="1" xmlns="http://www.w3.org/2000/svg" width="1365.333" height="1365.333" viewBox="0 0 1024.000000 1024.000000"><path d="M495 84c-11.1 2.6-10.7 2.4-18.1 5.3-6.8 2.6-105.2 39.5-115.4 43.2-3.3 1.2-8.9 3.3-12.5 4.7-3.6 1.4-10.3 3.9-15 5.7-4.7 1.7-9.8 3.6-11.5 4.3-1.6.6-3.2 1.2-3.5 1.3-1.8.4-12.8 4.7-14.2 5.5-1 .6-2.5 1-3.4 1-.9 0-2.8.6-4.2 1.4-2.7 1.4-31.4 12.4-34.2 13.1-.8.2-8.7 3.1-17.5 6.5s-19.1 7.2-23 8.6c-3.8 1.3-7.9 2.8-9 3.4-1.1.5-13.7 5.2-28 10.5s-26.9 10-28 10.5c-1.1.4-3.3 1.3-5 1.9-29.8 10-42.4 17.7-57 34.2-6.6 7.4-14.6 22.9-16 31-.3 1.8-.8 3.5-1 3.9-.2.4-.7 3.8-1.1 7.6-.8 9-.8 394.1.1 401.9 2.9 26.6 15.7 46.2 39 59.6 8.4 4.9 357.7 179.2 365 182.2 11.3 4.7 18.8 6.1 31 6.1 18.1-.1 8.7 4.2 211.1-96.9 114.6-57.2 187.5-94.2 191.5-97.1 15.4-11.1 26.6-27.4 29.5-42.8.2-1.2.6-3.2.9-4.6.3-1.4.8-4.5 1.1-7 .8-6 .8-393.8 0-401.3-2.9-27.6-20.8-52.5-47.1-65.6-3.3-1.6-13.4-5.7-22.5-9.1-9.1-3.4-17.4-6.5-18.5-7-1.1-.5-8.3-3.2-16-6-7.7-2.8-14.9-5.5-16-6-1.1-.5-6.5-2.5-12-4.5s-10.7-3.9-11.5-4.2c-.8-.4-1.7-.7-2-.8-.3-.1-1.2-.5-2-.8-.8-.4-10-3.8-20.5-7.7-10.4-3.8-19.9-7.4-21-7.9-1.1-.5-23.4-8.9-49.5-18.6-43.3-16.1-55.8-20.8-61.5-23-1.1-.4-2.4-.9-3-1.1-1.8-.6-23-8.5-25-9.3-2.3-1.1-5.5-2.3-7-2.7-.5-.1-12.5-4.6-26.5-9.9-14-5.3-26.6-10-28-10.5-1.4-.4-3.8-1.4-5.5-2.1-1.6-.7-3.2-1.3-3.5-1.4-1.2-.3-8.6-2.7-10-3.2-.8-.4-1.7-.7-2-.8-12.7-3.6-29.2-4.2-41-1.5zm149.4 158c72.1 27 132.2 49.5 133.6 50.1 1.3.6 11 4.2 21.5 8.1 10.4 3.9 21.9 8.2 25.5 9.5 3.6 1.4 7.9 3 9.7 3.6 3.3 1 4.6 2.7 3.5 4.4-.4.6-4.7 2.6-9.7 4.6-7.8 3.1-35.1 14.2-62 25.2-4.4 1.8-21 8.5-37 15-15.9 6.5-37.8 15.3-48.5 19.7-10.7 4.3-33.2 13.5-50 20.3-16.8 6.7-40.2 16.2-52 21-11.8 4.9-31.8 12.9-44.3 18l-22.9 9.3-9.6-3.9c-5.4-2.2-10.6-4.4-11.7-4.9-2.4-1.1-33.2-13.6-39.5-16-5.8-2.2-41.6-16.7-45.5-18.5-1.6-.7-11.1-4.5-21-8.5-9.9-3.9-19.3-7.8-21-8.5-1.6-.7-38.8-15.8-82.5-33.5s-81.3-33-83.5-34c-2.2-1-5.7-2.3-7.7-3.1-3.7-1.3-5.6-3.6-4.1-4.9.4-.4 21.1-8.3 45.8-17.5 24.8-9.2 47.7-17.8 51-19 4.4-1.7 215.4-80.7 226.5-84.8.8-.3 2.1-.6 2.9-.6.7-.1 60.4 22 132.5 48.9zm194.1 305.7v113.7L703 729.2C628.5 766.5 567.3 797 567 797c-1 0-.5-249.9.5-250.9.6-.5 24.6-10.7 53.5-22.5 28.9-11.9 53.4-22 54.5-22.5 2.1-1 13.1-5.5 28-11.6 5-2 10.4-4.3 12-5 3.8-1.6 23.3-9.7 34.5-14.2 4.7-1.9 9.9-4 11.5-4.8 1.7-.7 5.3-2.2 8-3.3 35.2-14.3 64.3-26.4 65.5-27.1.8-.6 2-1 2.5-1 .7-.1 1 38.3 1 113.6z"/></svg>